<?xml version="1.0" standalone="no"?>
<!DOCTYPE svg PUBLIC "-//W3C//DTD SVG 20010904//EN"
 "http://www.w3.org/TR/2001/REC-SVG-20010904/DTD/svg10.dtd">
<svg version="1.0" xmlns="http://www.w3.org/2000/svg"
 width="1024.000000pt" height="1024.000000pt" viewBox="0 0 1024.000000 1024.000000"
 preserveAspectRatio="xMidYMid meet">

<g transform="translate(0.000000,1024.000000) scale(0.100000,-0.100000)"
fill="#000000" stroke="none">
<path d="M0 5120 l0 -5120 5120 0 5120 0 0 5120 0 5120 -5120 0 -5120 0 0
-5120z m4311 2057 c165 -40 294 -109 379 -205 123 -138 166 -330 140 -627 -45
-526 -171 -965 -341 -1197 -156 -210 -401 -350 -690 -392 -86 -13 -206 -16
-622 -16 l-515 0 -10 -47 c-19 -88 -160 -804 -222 -1123 -34 -173 -71 -359
-82 -413 l-21 -98 -328 2 c-181 0 -329 3 -329 6 0 10 153 853 200 1098 27 143
83 440 124 660 41 220 97 519 125 665 44 233 122 682 182 1045 11 66 42 234
69 373 28 139 50 262 50 273 0 21 0 21 913 16 789 -4 921 -6 978 -20z m1635
13 l261 0 26 -87 c60 -201 446 -1651 493 -1852 21 -93 28 -111 39 -100 7 8
154 221 326 474 172 253 393 575 490 715 98 140 269 389 381 553 l203 297 308
0 309 0 -5 -27 c-4 -16 -74 -433 -157 -928 -82 -495 -213 -1242 -289 -1660
-161 -877 -279 -1507 -283 -1510 -2 -2 -153 0 -336 3 -299 4 -332 7 -327 21
10 33 200 1049 404 2161 44 239 89 478 100 530 11 52 18 96 16 98 -2 2 -16
-18 -31 -45 -117 -207 -217 -364 -737 -1158 -105 -159 -223 -340 -262 -401
l-73 -111 -218 -6 c-121 -3 -222 -3 -226 1 -7 8 -369 1216 -494 1650 -21 72
-40 132 -43 132 -4 0 -23 -102 -44 -227 -21 -126 -63 -363 -93 -528 -31 -165
-69 -374 -85 -465 -47 -258 -114 -614 -189 -995 -37 -192 -81 -421 -96 -508
l-28 -158 -348 2 -349 3 5 25 c3 14 53 287 112 606 58 319 145 798 194 1065
49 267 118 670 154 895 80 494 243 1415 267 1509 l11 39 176 -6 c97 -4 294 -7
438 -7z"/>
<path d="M2990 6530 c0 -3 -27 -147 -60 -320 -84 -436 -152 -831 -146 -837 3
-3 204 -6 448 -7 478 -1 506 1 601 52 58 31 142 119 179 188 59 108 113 345
133 580 18 202 -70 321 -248 339 -76 7 -907 12 -907 5z"/>
</g>
</svg>
