<?xml version="1.0" standalone="no"?>
<!DOCTYPE svg PUBLIC "-//W3C//DTD SVG 20010904//EN"
 "http://www.w3.org/TR/2001/REC-SVG-20010904/DTD/svg10.dtd">
<svg version="1.0" xmlns="http://www.w3.org/2000/svg"
 width="992.000000pt" height="192.000000pt" viewBox="0 0 992.000000 192.000000"
 preserveAspectRatio="xMidYMid meet">

<g transform="translate(0.000000,192.000000) scale(0.100000,-0.100000)"
fill="#000000" stroke="none">
<path d="M0 960 l0 -960 4960 0 4960 0 0 960 0 960 -4960 0 -4960 0 0 -960z
m2634 823 c-2 -16 -38 -230 -80 -478 -41 -247 -87 -521 -101 -607 l-27 -158
-81 0 -81 0 38 233 c21 127 53 320 72 427 19 107 49 288 68 402 l33 208 82 0
83 0 -6 -27z m4079 -195 c-43 -253 -108 -654 -139 -848 -13 -85 -26 -165 -29
-177 l-5 -23 -395 0 c-217 0 -395 3 -395 6 0 10 50 317 66 404 8 47 32 184 52
305 l38 220 310 3 311 2 22 138 c13 75 24 143 27 150 2 8 29 12 87 12 l83 0
-33 -192z m1014 165 c-3 -16 -49 -295 -103 -620 l-97 -593 -397 0 -397 0 33
203 c18 111 53 321 77 467 l44 265 311 3 312 2 5 23 c6 26 45 261 45 271 0 3
39 6 86 6 l87 0 -6 -27z m1907 -345 c-35 -205 -82 -484 -106 -620 l-43 -248
-395 0 -396 0 38 218 c20 119 47 278 58 352 12 74 30 184 41 244 10 60 19 113
19 118 0 4 142 8 315 8 173 0 315 3 315 8 0 13 38 237 45 265 7 27 8 27 89 27
l82 0 -62 -372z m-8414 130 c-20 -117 -50 -288 -66 -380 l-29 -168 -375 0
-376 0 -33 -202 c-18 -112 -35 -213 -38 -225 -5 -22 -10 -23 -84 -23 -70 0
-79 2 -79 18 0 26 92 572 181 1070 l22 122 457 0 456 0 -36 -212z m1004 -95
c-3 -21 -38 -231 -77 -468 l-72 -430 -393 -3 -392 -2 5 22 c2 13 36 219 76
458 39 239 72 441 75 448 3 9 90 12 394 12 l390 0 -6 -37z m726 24 c0 -7 -27
-174 -60 -371 -33 -197 -60 -360 -60 -362 0 -6 439 -4 454 2 9 3 16 14 16 23
0 9 25 175 57 369 l57 352 83 0 c46 0 83 -2 83 -4 0 -2 -20 -127 -45 -277 -25
-151 -59 -357 -76 -459 -17 -102 -32 -192 -35 -201 -4 -15 -178 -180 -386
-366 -58 -53 -59 -53 -124 -53 -57 0 -65 2 -61 18 3 9 8 38 12 65 6 46 10 51
158 184 84 75 154 140 155 145 2 4 -121 8 -272 8 l-276 0 5 23 c2 12 14 78 25
147 25 160 118 706 126 743 6 27 6 27 85 27 57 0 79 -4 79 -13z m1786 -14
c-10 -50 -146 -888 -146 -900 0 -10 -24 -13 -85 -13 l-86 0 6 38 c4 20 15 84
25 142 43 236 91 552 86 557 -3 4 -55 7 -116 9 -106 3 -110 2 -115 -19 -9 -39
-125 -705 -125 -716 0 -7 -30 -11 -80 -11 -57 0 -80 4 -80 13 0 6 9 66 21 132
37 216 90 529 95 565 l6 35 -124 -1 -123 -2 -22 -128 c-21 -128 -60 -372 -85
-531 l-12 -83 -83 0 c-46 0 -83 4 -83 9 0 16 79 503 115 716 20 110 35 203 35
208 0 4 221 7 491 7 l491 0 -6 -27z m980 0 c-10 -43 -63 -353 -107 -618 -21
-132 -42 -252 -45 -268 l-6 -27 -389 0 c-364 0 -389 1 -389 18 0 9 21 134 45
277 25 143 59 347 77 453 l33 192 393 0 394 0 -6 -27z m2705 17 l255 0 -12
-87 c-7 -49 -24 -153 -38 -233 -14 -80 -28 -160 -31 -177 l-6 -33 -324 0 -325
0 -5 -22 c-8 -36 -25 -151 -25 -170 0 -17 22 -18 320 -18 221 0 320 -3 320
-11 0 -6 -7 -48 -17 -95 l-16 -84 -404 0 -403 0 0 22 c0 12 21 144 46 292 25
149 58 348 73 441 l27 170 70 5 c38 3 107 4 154 3 47 -1 200 -3 341 -3z"/>
<path d="M6045 1278 c-2 -7 -8 -42 -15 -78 -42 -250 -71 -418 -75 -437 l-5
-23 227 0 228 0 43 258 c23 141 42 265 42 275 0 16 -17 17 -220 17 -168 0
-222 -3 -225 -12z"/>
<path d="M7026 1263 c-16 -84 -86 -493 -86 -507 0 -15 21 -16 227 -14 l226 3
43 260 c24 143 44 266 44 273 0 9 -51 12 -224 12 l-224 0 -6 -27z"/>
<path d="M8990 1267 c-4 -12 -25 -125 -45 -252 -20 -126 -39 -240 -42 -252
l-5 -23 225 0 226 0 10 53 c14 69 81 472 81 487 0 7 -64 10 -221 9 -216 -1
-220 -1 -229 -22z"/>
<path d="M476 1538 c-4 -15 -56 -350 -56 -360 0 -4 126 -6 280 -5 154 1 280 2
280 2 1 0 16 84 34 188 l33 187 -284 0 c-218 0 -284 -3 -287 -12z"/>
<path d="M1586 1273 c-7 -25 -86 -508 -86 -528 0 -13 28 -15 219 -15 l220 0 6
48 c13 85 75 465 81 489 l6 23 -220 0 c-202 0 -221 -2 -226 -17z"/>
<path d="M5075 1278 c-2 -7 -23 -119 -45 -248 -23 -129 -43 -247 -46 -262 l-6
-28 224 0 223 0 43 260 c23 142 45 266 48 274 5 14 -19 16 -215 16 -168 0
-223 -3 -226 -12z"/>
<path d="M7992 1218 c-7 -46 -15 -94 -18 -107 -6 -22 -5 -24 17 -18 13 4 121
7 239 7 l216 0 12 85 c7 47 15 92 18 100 5 13 -24 15 -234 15 l-239 0 -11 -82z"/>
</g>
</svg>
